<svg width="13" height="12" viewBox="0 0 13 12" fill="none" xmlns="http://www.w3.org/2000/svg">
<path d="M5.1066 8.01587L9.57922 5.8269C9.90375 5.66167 10.1503 5.37546 10.2657 5.03005C10.381 4.68464 10.356 4.30771 10.1959 3.98061C10.0358 3.65352 9.75353 3.40247 9.40999 3.28166C9.06644 3.16085 8.68916 3.17996 8.35958 3.33486L2.49515 6.19999C2.21395 6.33341 1.96203 6.52132 1.75399 6.75282C1.54595 6.98433 1.38594 7.25483 1.28322 7.54864C1.18051 7.84245 1.13713 8.15373 1.15561 8.46443C1.17409 8.77513 1.25406 9.07907 1.39088 9.35863C1.52771 9.63819 1.71866 9.88781 1.95267 10.093C2.18669 10.2982 2.45911 10.455 2.75414 10.5541C3.04918 10.6532 3.36096 10.6928 3.67141 10.6706C3.98186 10.6483 4.28481 10.5647 4.56269 10.4245L10.4646 7.536C10.861 7.34908 11.2162 7.08524 11.5097 6.75982C11.8031 6.4344 12.029 6.05388 12.1741 5.6404C12.3192 5.22692 12.3806 4.78871 12.3549 4.35127C12.3291 3.91383 12.2166 3.48587 12.024 3.09227C11.8314 2.69868 11.5624 2.34731 11.2328 2.05858C10.9031 1.76986 10.5194 1.54954 10.1039 1.41044C9.68832 1.27134 9.24927 1.21624 8.81225 1.24833C8.37522 1.28042 7.94894 1.39907 7.55817 1.59737L2.04302 4.29657" stroke="#4F52E7" stroke-width="1.01278" stroke-miterlimit="10" stroke-linecap="round"/>
</svg>
