<svg width="13" height="15" viewBox="0 0 13 15" fill="none" xmlns="http://www.w3.org/2000/svg">
<path d="M6.123 8.03381L8.42075 5.73444C8.49629 5.659 8.58595 5.59918 8.68462 5.5584C8.78328 5.51761 8.889 5.49666 8.99576 5.49674C9.10252 5.49681 9.20822 5.51791 9.30682 5.55884C9.40543 5.59976 9.495 5.65971 9.57044 5.73525C9.64587 5.81079 9.70569 5.90045 9.74648 5.99911C9.78726 6.09778 9.80822 6.2035 9.80814 6.31026C9.80806 6.41702 9.78696 6.52272 9.74604 6.62132C9.70511 6.71992 9.64517 6.8095 9.56962 6.88494L6.69744 9.75712C6.62203 9.83272 6.53246 9.89271 6.43386 9.93367C6.33525 9.97463 6.22954 9.99575 6.12276 9.99583C6.01599 9.9959 5.91024 9.97493 5.81158 9.93411C5.71291 9.89329 5.62326 9.83343 5.54775 9.75794L3.82525 8.03544C3.7476 7.96054 3.68564 7.87093 3.64299 7.77183C3.60033 7.67273 3.57785 7.56614 3.57683 7.45825C3.57582 7.35037 3.5963 7.24337 3.63709 7.14349C3.67787 7.04361 3.73813 6.95285 3.81437 6.87651C3.8906 6.80017 3.98127 6.73977 4.0811 6.69885C4.18092 6.65792 4.28789 6.63729 4.39578 6.63815C4.50366 6.63901 4.61029 6.66135 4.70945 6.70386C4.80861 6.74637 4.89831 6.8082 4.97331 6.88575L6.123 8.03381ZM6.5 14C4.77609 14 3.12279 13.3152 1.90381 12.0962C0.68482 10.8772 0 9.22391 0 7.5C0 5.77609 0.68482 4.12279 1.90381 2.90381C3.12279 1.68482 4.77609 1 6.5 1C8.22391 1 9.87721 1.68482 11.0962 2.90381C12.3152 4.12279 13 5.77609 13 7.5C13 9.22391 12.3152 10.8772 11.0962 12.0962C9.87721 13.3152 8.22391 14 6.5 14ZM6.5 12.375C7.14019 12.375 7.77412 12.2489 8.36558 12.0039C8.95704 11.7589 9.49446 11.3998 9.94715 10.9471C10.3998 10.4945 10.7589 9.95704 11.0039 9.36558C11.2489 8.77412 11.375 8.14019 11.375 7.5C11.375 6.85981 11.2489 6.22588 11.0039 5.63442C10.7589 5.04296 10.3998 4.50554 9.94715 4.05285C9.49446 3.60017 8.95704 3.24108 8.36558 2.99609C7.77412 2.7511 7.14019 2.625 6.5 2.625C5.20707 2.625 3.96709 3.13861 3.05285 4.05285C2.13861 4.96709 1.625 6.20707 1.625 7.5C1.625 8.79293 2.13861 10.0329 3.05285 10.9471C3.96709 11.8614 5.20707 12.375 6.5 12.375Z" fill="#DDCC33"/>
<circle cx="7" cy="7" r="4" fill="white"/>
<path d="M7.30005 3.9L7.14005 8.73H5.96005L5.79005 3.9H7.30005ZM6.58005 11.07C6.32672 11.07 6.11672 10.9933 5.95005 10.84C5.79005 10.68 5.71005 10.4833 5.71005 10.25C5.71005 10.0167 5.79005 9.82333 5.95005 9.67C6.11672 9.51 6.32672 9.43 6.58005 9.43C6.82672 9.43 7.03005 9.51 7.19005 9.67C7.35005 9.82333 7.43005 10.0167 7.43005 10.25C7.43005 10.4833 7.35005 10.68 7.19005 10.84C7.03005 10.9933 6.82672 11.07 6.58005 11.07Z" fill="#DDCC33"/>
</svg>
