<svg width="13" height="13" viewBox="0 0 13 13" fill="none" xmlns="http://www.w3.org/2000/svg">
<path d="M6.123 7.03381L8.42075 4.73444C8.49629 4.659 8.58595 4.59918 8.68462 4.5584C8.78328 4.51761 8.889 4.49666 8.99576 4.49674C9.10252 4.49681 9.20822 4.51791 9.30682 4.55884C9.40543 4.59976 9.495 4.65971 9.57044 4.73525C9.64587 4.81079 9.70569 4.90045 9.74648 4.99911C9.78726 5.09778 9.80822 5.2035 9.80814 5.31026C9.80806 5.41702 9.78696 5.52272 9.74604 5.62132C9.70511 5.71992 9.64517 5.8095 9.56962 5.88494L6.69744 8.75712C6.62203 8.83272 6.53246 8.89271 6.43386 8.93367C6.33525 8.97463 6.22954 8.99575 6.12276 8.99583C6.01599 8.9959 5.91024 8.97493 5.81158 8.93411C5.71291 8.89329 5.62326 8.83343 5.54775 8.75794L3.82525 7.03544C3.7476 6.96054 3.68564 6.87093 3.64299 6.77183C3.60033 6.67273 3.57785 6.56614 3.57683 6.45825C3.57582 6.35037 3.5963 6.24337 3.63709 6.14349C3.67787 6.04361 3.73813 5.95285 3.81437 5.87651C3.8906 5.80017 3.98127 5.73977 4.0811 5.69885C4.18092 5.65792 4.28789 5.63729 4.39578 5.63815C4.50366 5.63901 4.61029 5.66135 4.70945 5.70386C4.80861 5.74637 4.89831 5.8082 4.97331 5.88575L6.123 7.03381ZM6.5 13C4.77609 13 3.12279 12.3152 1.90381 11.0962C0.68482 9.87721 0 8.22391 0 6.5C0 4.77609 0.68482 3.12279 1.90381 1.90381C3.12279 0.68482 4.77609 0 6.5 0C8.22391 0 9.87721 0.68482 11.0962 1.90381C12.3152 3.12279 13 4.77609 13 6.5C13 8.22391 12.3152 9.87721 11.0962 11.0962C9.87721 12.3152 8.22391 13 6.5 13ZM6.5 11.375C7.14019 11.375 7.77412 11.2489 8.36558 11.0039C8.95704 10.7589 9.49446 10.3998 9.94715 9.94715C10.3998 9.49446 10.7589 8.95704 11.0039 8.36558C11.2489 7.77412 11.375 7.14019 11.375 6.5C11.375 5.85981 11.2489 5.22588 11.0039 4.63442C10.7589 4.04296 10.3998 3.50554 9.94715 3.05285C9.49446 2.60017 8.95704 2.24108 8.36558 1.99609C7.77412 1.7511 7.14019 1.625 6.5 1.625C5.20707 1.625 3.96709 2.13861 3.05285 3.05285C2.13861 3.96709 1.625 5.20707 1.625 6.5C1.625 7.79293 2.13861 9.03291 3.05285 9.94715C3.96709 10.8614 5.20707 11.375 6.5 11.375Z" fill="#6EC76C"/>
</svg>
